<?xml version="1.0" encoding="UTF-8" standalone="no"?>
<!-- Created with Inkscape (http://www.inkscape.org/) -->

<svg
   width="160mm"
   height="160mm"
   viewBox="0 0 160 160"
   version="1.1"
   id="svg5"
   sodipodi:docname="logo-soundpads.svg"
   inkscape:version="1.1.2 (0a00cf5339, 2022-02-04)"
   xmlns:inkscape="http://www.inkscape.org/namespaces/inkscape"
   xmlns:sodipodi="http://sodipodi.sourceforge.net/DTD/sodipodi-0.dtd"
   xmlns="http://www.w3.org/2000/svg"
   xmlns:svg="http://www.w3.org/2000/svg">
  <sodipodi:namedview
     id="namedview7"
     pagecolor="#ffffff"
     bordercolor="#666666"
     borderopacity="1.0"
     inkscape:pageshadow="2"
     inkscape:pageopacity="0.0"
     inkscape:pagecheckerboard="true"
     inkscape:document-units="mm"
     showgrid="false"
     inkscape:zoom="1.4142136"
     inkscape:cx="158.74547"
     inkscape:cy="378.30212"
     inkscape:window-width="2560"
     inkscape:window-height="1367"
     inkscape:window-x="0"
     inkscape:window-y="0"
     inkscape:window-maximized="1"
     inkscape:current-layer="layer1" />
  <defs
     id="defs2" />
  <g
     inkscape:label="Calque 1"
     inkscape:groupmode="layer"
     id="layer1"
     transform="translate(-9.1210938,-56.658203)">
    <path
       id="path848"
       style="fill:#ffffff;stroke-width:0;stroke-linejoin:round;paint-order:markers fill stroke"
       d="m 44.842146,71.209144 c -3.975445,-2.26e-4 -7.947873,0.07003 -8.449631,0.210531 -0.815104,0.228274 -1.514459,0.727342 -2.045308,1.459763 -0.81549,1.125153 -0.772046,0.004 -0.766679,19.841713 0.0042,15.483919 0.02872,17.922909 0.176448,17.637029 0.0943,-0.18251 1.927997,-4.20928 4.075704,-8.94819 2.147712,-4.738929 4.144479,-9.132879 4.436885,-9.764159 0.938442,-2.02598 2.295199,-3.126322 4.213218,-3.416865 0.546181,-0.08264 7.917146,-0.130632 20.347871,-0.132072 l 19.490483,-0.0017 -0.03769,-3.122647 C 86.246197,81.949336 86.234897,81.831456 85.94339,81.230949 85.575685,80.473471 84.769371,79.669307 84.002874,79.296512 83.432018,79.018932 83.406082,79.018147 71.480438,78.95391 L 59.530009,78.88984 57.917952,76.507754 c -3.043396,-4.496747 -3.237253,-4.71123 -4.608778,-5.08716 -0.512845,-0.140584 -4.491581,-0.211177 -8.467027,-0.211403 z m 25.375402,20.683837 c -20.55408,0 -21.566143,0.0107 -22.266849,0.23668 -0.403739,0.13019 -0.926313,0.35668 -1.161824,0.50301 -0.57264,0.3556 -1.428431,1.21367 -1.774008,1.77926 -0.154265,0.25248 -2.768128,5.948429 -5.808293,12.657529 -6.151907,13.57608 -5.693802,12.31608 -4.914869,13.5075 0.438521,0.67073 1.154737,1.21379 2.012172,1.52558 0.603167,0.2186 1.815611,0.23205 23.350391,0.23537 21.910825,0.004 22.741212,-0.004 23.455595,-0.23799 1.01369,-0.33202 1.730183,-0.79937 2.343529,-1.52645 0.697072,-0.82634 10.431587,-21.314849 10.647777,-22.410789 0.5047,-2.5584 -1.01263,-5.16491 -3.48257,-5.98246 l -0.86816,-0.28724 z m 77.043242,33.425049 c -0.006,-6.7e-4 -0.0121,-1.4e-4 -0.0186,0.003 -0.11823,0.039 -9.05941,2.41402 -19.86864,5.27764 -10.80926,2.86363 -19.74955,5.23862 -19.86782,5.27721 -0.20403,0.0664 -0.21497,1.01398 -0.21497,17.52936 V 170.864 l -0.76751,-0.5915 c -2.09991,-1.61814 -4.42627,-2.33627 -7.125441,-2.19945 -3.57033,0.18119 -6.66442,2.06465 -8.67081,5.27852 -0.62959,1.00847 -1.07466,2.09898 -1.44969,3.54937 -0.159054,0.61485 -0.215134,1.30882 -0.212074,2.63315 0.005,2.14755 0.238014,3.22156 1.093064,5.03791 1.55772,3.30905 4.42586,5.56967 7.96212,6.27624 h 8.3e-4 c 1.17804,0.23541 3.299451,0.14515 4.542921,-0.19353 4.24387,-1.15585 7.50529,-4.8459 8.18206,-9.25766 0.0834,-0.54351 0.12905,-5.90946 0.12965,-15.37394 6.3e-4,-7.99614 0.0469,-14.56825 0.10313,-14.60461 0.0904,-0.0584 32.51368,-8.6823 32.64291,-8.6823 0.0281,1e-5 0.051,4.24901 0.051,9.44291 v 9.44335 l -0.62585,-0.51696 c -3.31957,-2.74378 -8.23918,-3.13875 -11.97818,-0.96111 -2.66325,1.5511 -4.60464,4.1799 -5.40362,7.31669 -0.31977,1.25235 -0.3221,4.24808 -0.006,5.5226 0.54573,2.19911 2.06141,4.704 3.67104,6.06615 6.51101,5.50994 16.1092,1.96206 17.79475,-6.57743 0.21824,-1.10411 0.22881,-2.23487 0.22988,-24.19006 0.002,-21.19319 -0.008,-22.93632 -0.19384,-22.96349 z m -104.902173,0.38619 v 75.37636 h 9.656189 v -22.49971 h 26.639118 v -5.87741 H 52.014806 v -28.0537 h 26.639118 v -5.87698 H 52.014806 v -13.06856 z" />
  </g>
</svg>
